<?xml version="1.0" encoding="utf-8"?>
<svg viewBox="0 0 500 500" width="500" height="500" xmlns="http://www.w3.org/2000/svg"><rect style="" x="0" y="0" width="500" height="500" rx="100" ry="100" transform="matrix(0.9999999999999999, 0, 0, 0.9999999999999999, 0, 0)" id="object-0"/><rect style="fill: none; paint-order: fill; stroke: rgb(255, 255, 255); stroke-width: 16px;" x="70" y="70" width="360" height="360" rx="45" ry="45" transform="matrix(0.9999999999999999, 0, 0, 0.9999999999999999, 0, 0)"/><rect x="237" y="61" width="26" height="18" style="" transform="matrix(0.9999999999999999, 0, 0, 0.9999999999999999, 0, 0)"/><rect x="237" y="421" width="26" height="18" style="" transform="matrix(0.9999999999999999, 0, 0, 0.9999999999999999, 0, 0)"/><rect x="61" y="237" width="18" height="26" style="" transform="matrix(0.9999999999999999, 0, 0, 0.9999999999999999, 0, 0)"/><line style="fill: none; stroke: rgb(0, 0, 0); stroke-width: 18px; stroke-dasharray: 30, 24; stroke-dashoffset: -18px;" x1="430" y1="110" x2="430" y2="390" transform="matrix(0.9999999999999999, 0, 0, 0.9999999999999999, 0, 0)"/><path d="M 193.48 177.11 L 195.14 177.11 Q 206.27 177.11 217.01 182.48 Q 220.43 184.34 223.75 186.78 Q 225.41 187.95 229.02 191.27 Q 232.83 195.37 234.49 197.91 Q 235.96 200.06 237.13 202.21 L 220.14 210.61 Q 219.36 208.85 216.43 205.53 Q 207.44 195.96 194.16 195.96 Q 181.07 195.96 172.97 203.67 Q 169.94 206.99 169.16 208.95 Q 166.82 213.44 166.82 218.23 L 166.82 218.91 Q 166.82 225.65 171.8 229.36 Q 174.04 231.12 176.09 232.19 Q 181.17 234.92 191.13 237.76 Q 198.55 239.91 209 242.15 Q 214.86 243.81 218.77 245.67 Q 222.58 247.52 226.68 250.65 Q 230.29 253.67 233.03 257.09 Q 240.74 267.54 240.74 280.24 L 240.74 280.73 Q 240.74 293.23 233.22 304.46 Q 231.95 306.51 228.63 310.02 Q 224.14 314.12 221.21 315.88 Q 218.09 317.83 214.37 319.4 Q 204.12 323.69 193.18 323.69 Q 176.29 323.69 162.23 313.73 Q 159.69 311.78 156.95 309.24 Q 153.05 305.33 151.48 303.19 Q 148.46 299.08 146.8 295.96 Q 145.04 292.64 144.84 291.96 L 161.93 284.05 Q 163.5 287.56 166.23 291.27 Q 167.5 293.13 170.14 295.67 Q 173.95 299.08 176.29 300.35 Q 184.2 304.75 192.89 304.75 L 193.57 304.75 Q 202.27 304.75 210.18 300.45 Q 212.32 299.18 214.67 297.13 Q 217.3 294.49 218.57 292.35 Q 221.89 286.58 221.89 280.43 Q 221.89 270.47 213.5 264.42 Q 211.05 262.85 209.1 262.07 Q 205.68 260.51 198.46 259.14 Q 177.95 254.46 168.57 249.57 Q 147.87 239.32 147.87 218.52 Q 147.87 204.65 156.95 193.32 Q 159.88 189.81 163.2 187.17 Q 167.21 184.14 170.23 182.58 Q 173.55 180.82 178.24 179.36 Q 185.86 177.11 193.48 177.11 Z M 269.05 178.77 L 316.12 178.77 Q 338.78 178.77 354.6 195.76 Q 365.83 209.44 365.83 225.84 Q 365.83 247.13 347.76 262.27 Q 333.6 272.91 315.83 272.91 L 287.51 272.91 L 287.51 321.45 L 287.31 321.74 L 269.05 321.74 L 268.76 321.45 L 268.76 179.07 Z M 287.51 197.82 L 287.51 253.97 L 317 253.97 Q 331.06 253.97 341.22 242.35 Q 346.88 234.53 346.88 226.43 L 346.88 225.16 Q 346.88 212.37 334.58 203.19 Q 326.96 197.52 313.39 197.52 L 287.8 197.52 Z" style="fill: rgb(255, 255, 255); text-wrap-mode: nowrap;"/><path d="M 160.06 285.86 Q 164.02 285.86 166.57 287.47 Q 169.12 289.07 169.18 292.22 L 169.18 292.58 L 162.97 292.58 L 162.97 292.46 Q 162.97 291.56 162.31 290.96 Q 161.65 290.36 160.3 290.36 Q 158.98 290.36 158.28 290.75 Q 157.57 291.14 157.57 291.71 Q 157.57 292.52 158.53 292.91 Q 159.49 293.3 161.62 293.72 Q 164.11 294.23 165.72 294.79 Q 167.32 295.34 168.52 296.6 Q 169.72 297.86 169.75 300.02 Q 169.75 303.68 167.28 305.45 Q 164.8 307.22 160.66 307.22 Q 155.83 307.22 153.15 305.6 Q 150.46 303.98 150.46 299.87 L 156.73 299.87 Q 156.73 301.43 157.54 301.96 Q 158.35 302.48 160.06 302.48 Q 161.32 302.48 162.15 302.21 Q 162.97 301.94 162.97 301.1 Q 162.97 300.35 162.06 299.98 Q 161.14 299.6 159.07 299.18 Q 156.55 298.64 154.9 298.06 Q 153.25 297.47 152.02 296.12 Q 150.79 294.77 150.79 292.46 Q 150.79 289.07 153.42 287.47 Q 156.04 285.86 160.06 285.86 Z" transform="matrix(0.469472, 0.882947, -0.882947, 0.469472, 345.460271, 16.545016)" style="text-wrap-mode: nowrap;"/><path d="M 171.94 298.55 Q 171.94 302.78 169.27 305 Q 166.6 307.22 161.68 307.22 Q 156.76 307.22 154.08 305 Q 151.39 302.78 151.39 298.55 L 151.39 286.22 L 158.02 286.22 L 158.02 298.46 Q 158.02 300.2 158.95 301.24 Q 159.88 302.27 161.65 302.27 Q 163.42 302.27 164.37 301.22 Q 165.31 300.17 165.31 298.46 L 165.31 286.22 L 171.94 286.22 L 171.94 298.55 Z" transform="matrix(0.987688, 0.156434, -0.156434, 0.987688, 73.054292, -4.857811)" style="text-wrap-mode: nowrap;"/><path d="M 162.97 286.22 Q 164.89 286.22 166.39 287.11 Q 167.89 287.99 168.73 289.54 Q 169.57 291.08 169.57 293 L 169.57 293.39 Q 169.57 295.31 168.73 296.87 Q 167.89 298.43 166.39 299.32 Q 164.89 300.2 162.97 300.2 L 158.02 300.2 L 158.02 306.86 L 151.39 306.86 L 151.39 286.22 L 162.97 286.22 Z M 158.02 295.37 L 160.75 295.37 Q 161.8 295.37 162.33 294.83 Q 162.85 294.29 162.85 293.36 L 162.85 293.12 Q 162.85 292.16 162.33 291.64 Q 161.8 291.11 160.75 291.11 L 158.02 291.11 Z" transform="matrix(0.809016, -0.587786, 0.587786, 0.809016, -85.35721, 159.999072)" style="text-wrap-mode: nowrap;"/><path d="M 151.39 286.22 L 169.24 286.22 L 169.24 291.17 L 158.02 291.17 L 158.02 294.02 L 167.62 294.02 L 167.62 298.76 L 158.02 298.76 L 158.02 301.91 L 169.45 301.91 L 169.45 306.86 L 151.39 306.86 Z" transform="matrix(-0.069758, -0.997564, 0.997564, -0.069758, -54.229356, 459.601875)" style="text-wrap-mode: nowrap;"/><path d="M 170.98 292.55 Q 170.98 294.44 169.96 295.97 Q 168.94 297.5 166.99 298.22 L 171.58 306.86 L 164.14 306.86 L 160.48 299.33 L 158.02 299.33 L 158.02 306.86 L 151.39 306.86 L 151.39 286.22 L 164.02 286.22 Q 166.24 286.22 167.82 287.08 Q 169.39 287.93 170.19 289.39 Q 170.98 290.84 170.98 292.55 Z M 164.23 292.82 Q 164.23 292.01 163.69 291.47 Q 163.15 290.93 162.37 290.93 L 158.02 290.93 L 158.02 294.74 L 162.37 294.74 Q 163.15 294.74 163.69 294.19 Q 164.23 293.63 164.23 292.82 Z" transform="matrix(-0.951057, -0.309016, 0.309016, -0.951057, 272.014042, 585.273996)" style="text-wrap-mode: nowrap;"/><path d="M 160.06 285.86 Q 164.02 285.86 166.57 287.47 Q 169.12 289.07 169.18 292.22 L 169.18 292.58 L 162.97 292.58 L 162.97 292.46 Q 162.97 291.56 162.31 290.96 Q 161.65 290.36 160.3 290.36 Q 158.98 290.36 158.28 290.75 Q 157.57 291.14 157.57 291.71 Q 157.57 292.52 158.53 292.91 Q 159.49 293.3 161.62 293.72 Q 164.11 294.23 165.72 294.79 Q 167.32 295.34 168.52 296.6 Q 169.72 297.86 169.75 300.02 Q 169.75 303.68 167.28 305.45 Q 164.8 307.22 160.66 307.22 Q 155.83 307.22 153.15 305.6 Q 150.46 303.98 150.46 299.87 L 156.73 299.87 Q 156.73 301.43 157.54 301.96 Q 158.35 302.48 160.06 302.48 Q 161.32 302.48 162.15 302.21 Q 162.97 301.94 162.97 301.1 Q 162.97 300.35 162.06 299.98 Q 161.14 299.6 159.07 299.18 Q 156.55 298.64 154.9 298.06 Q 153.25 297.47 152.02 296.12 Q 150.79 294.77 150.79 292.46 Q 150.79 289.07 153.42 287.47 Q 156.04 285.86 160.06 285.86 Z" transform="matrix(-0.961262, -0.275636, 0.275636, -0.961262, 250.791843, 572.998788)" style="text-wrap-mode: nowrap;"/><path d="M 171.94 298.55 Q 171.94 302.78 169.27 305 Q 166.6 307.22 161.68 307.22 Q 156.76 307.22 154.08 305 Q 151.39 302.78 151.39 298.55 L 151.39 286.22 L 158.02 286.22 L 158.02 298.46 Q 158.02 300.2 158.95 301.24 Q 159.88 302.27 161.65 302.27 Q 163.42 302.27 164.37 301.22 Q 165.31 300.17 165.31 298.46 L 165.31 286.22 L 171.94 286.22 L 171.94 298.55 Z" transform="matrix(-0.207913, -0.978147, 0.978147, -0.207913, -97.887788, 443.768104)" style="text-wrap-mode: nowrap;"/><path d="M 162.97 286.22 Q 164.89 286.22 166.39 287.11 Q 167.89 287.99 168.73 289.54 Q 169.57 291.08 169.57 293 L 169.57 293.39 Q 169.57 295.31 168.73 296.87 Q 167.89 298.43 166.39 299.32 Q 164.89 300.2 162.97 300.2 L 158.02 300.2 L 158.02 306.86 L 151.39 306.86 L 151.39 286.22 L 162.97 286.22 Z M 158.02 295.37 L 160.75 295.37 Q 161.8 295.37 162.33 294.83 Q 162.85 294.29 162.85 293.36 L 162.85 293.12 Q 162.85 292.16 162.33 291.64 Q 161.8 291.11 160.75 291.11 L 158.02 291.11 Z" transform="matrix(0.615661, -0.788011, 0.788011, 0.615661, -163.834399, 138.406725)" style="text-wrap-mode: nowrap;"/><path d="M 151.39 286.22 L 169.24 286.22 L 169.24 291.17 L 158.02 291.17 L 158.02 294.02 L 167.62 294.02 L 167.62 298.76 L 158.02 298.76 L 158.02 301.91 L 169.45 301.91 L 169.45 306.86 L 151.39 306.86 Z" transform="matrix(0.999848, -0.017454, 0.017454, 0.999848, 28.807579, -106.352411)" style="text-wrap-mode: nowrap;"/><path d="M 170.98 292.55 Q 170.98 294.44 169.96 295.97 Q 168.94 297.5 166.99 298.22 L 171.58 306.86 L 164.14 306.86 L 160.48 299.33 L 158.02 299.33 L 158.02 306.86 L 151.39 306.86 L 151.39 286.22 L 164.02 286.22 Q 166.24 286.22 167.82 287.08 Q 169.39 287.93 170.19 289.39 Q 170.98 290.84 170.98 292.55 Z M 164.23 292.82 Q 164.23 292.01 163.69 291.47 Q 163.15 290.93 162.37 290.93 L 158.02 290.93 L 158.02 294.74 L 162.37 294.74 Q 163.15 294.74 163.69 294.19 Q 164.23 293.63 164.23 292.82 Z" transform="matrix(0.669131, 0.743144, -0.743144, 0.669131, 334.851873, -119.233988)" style="text-wrap-mode: nowrap;"/><path d="M 162.97 286.22 Q 164.89 286.22 166.39 287.11 Q 167.89 287.99 168.73 289.54 Q 169.57 291.08 169.57 293 L 169.57 293.39 Q 169.57 295.31 168.73 296.87 Q 167.89 298.43 166.39 299.32 Q 164.89 300.2 162.97 300.2 L 158.02 300.2 L 158.02 306.86 L 151.39 306.86 L 151.39 286.22 L 162.97 286.22 Z M 158.02 295.37 L 160.75 295.37 Q 161.8 295.37 162.33 294.83 Q 162.85 294.29 162.85 293.36 L 162.85 293.12 Q 162.85 292.16 162.33 291.64 Q 161.8 291.11 160.75 291.11 L 158.02 291.11 Z" transform="matrix(-0.000001, -1, 1, -0.000001, -17.859329, 470.355323)" style="text-wrap-mode: nowrap;"/><path d="M 151.39 286.22 L 169.24 286.22 L 169.24 291.17 L 158.02 291.17 L 158.02 294.02 L 167.62 294.02 L 167.62 298.76 L 158.02 298.76 L 158.02 301.91 L 169.45 301.91 L 169.45 306.86 L 151.39 306.86 Z" transform="matrix(-0.000001, -1, 1, -0.000001, -18.759949, 442.358863)" style="text-wrap-mode: nowrap;"/><path d="M 170.98 292.55 Q 170.98 294.44 169.96 295.97 Q 168.94 297.5 166.99 298.22 L 171.58 306.86 L 164.14 306.86 L 160.48 299.33 L 158.02 299.33 L 158.02 306.86 L 151.39 306.86 L 151.39 286.22 L 164.02 286.22 Q 166.24 286.22 167.82 287.08 Q 169.39 287.93 170.19 289.39 Q 170.98 290.84 170.98 292.55 Z M 164.23 292.82 Q 164.23 292.01 163.69 291.47 Q 163.15 290.93 162.37 290.93 L 158.02 290.93 L 158.02 294.74 L 162.37 294.74 Q 163.15 294.74 163.69 294.19 Q 164.23 293.63 164.23 292.82 Z" transform="matrix(-0.000001, -1, 1, -0.000001, -18.606102, 411.120734)" style="text-wrap-mode: nowrap;"/><path d="M 151.39 286.22 L 168.07 286.22 L 168.07 291.17 L 158.02 291.17 L 158.02 294.71 L 166.66 294.71 L 166.66 299.45 L 158.02 299.45 L 158.02 306.86 L 151.39 306.86 Z" transform="matrix(-0.000001, -1, 1, -0.000001, -17.859413, 379.011877)" style="text-wrap-mode: nowrap;"/><path d="M 162.07 285.16 Q 167.59 285.16 170.59 287.99 Q 173.6 290.81 173.6 296.2 Q 173.6 301.59 170.59 304.42 Q 167.59 307.24 162.07 307.24 Q 156.55 307.24 153.56 304.43 Q 150.57 301.63 150.57 296.2 Q 150.57 290.78 153.56 287.97 Q 156.55 285.16 162.07 285.16 Z M 162.07 290.28 Q 159.87 290.28 158.72 291.61 Q 157.57 292.95 157.57 295.21 L 157.57 297.19 Q 157.57 299.46 158.72 300.79 Q 159.87 302.12 162.07 302.12 Q 164.27 302.12 165.43 300.79 Q 166.6 299.46 166.6 297.19 L 166.6 295.21 Q 166.6 292.95 165.43 291.61 Q 164.27 290.28 162.07 290.28 Z" transform="matrix(0.707106, -0.707107, 0.707107, 0.707106, -43.716202, 95.401704)" style="text-wrap-mode: nowrap;"/><path d="M 170.98 292.55 Q 170.98 294.44 169.96 295.97 Q 168.94 297.5 166.99 298.22 L 171.58 306.86 L 164.14 306.86 L 160.48 299.33 L 158.02 299.33 L 158.02 306.86 L 151.39 306.86 L 151.39 286.22 L 164.02 286.22 Q 166.24 286.22 167.82 287.08 Q 169.39 287.93 170.19 289.39 Q 170.98 290.84 170.98 292.55 Z M 164.23 292.82 Q 164.23 292.01 163.69 291.47 Q 163.15 290.93 162.37 290.93 L 158.02 290.93 L 158.02 294.74 L 162.37 294.74 Q 163.15 294.74 163.69 294.19 Q 164.23 293.63 164.23 292.82 Z" transform="matrix(0.999848, 0.017452, -0.017452, 0.999848, 159.555239, -110.443521)" style="text-wrap-mode: nowrap;"/><path d="M 165.22 306.86 L 164.35 303.95 L 157.12 303.95 L 156.25 306.86 L 149.47 306.86 L 157 286.22 L 164.71 286.22 L 172.24 306.86 Z M 158.5 299.33 L 162.97 299.33 L 160.81 291.98 L 160.69 291.98 Z" transform="matrix(0.642789, 0.766043, -0.766043, 0.642789, 471.560157, -110.378069)" style="text-wrap-mode: nowrap;"/><path d="M 163.27 291.5 L 163.27 306.86 L 156.64 306.86 L 156.64 291.5 L 149.86 291.5 L 149.86 286.22 L 170.02 286.22 L 170.02 291.5 Z" transform="matrix(-0.309016, 0.951057, -0.951057, -0.309016, 686.644236, 173.086245)" style="text-wrap-mode: nowrap;"/><path d="M 161.65 285.86 Q 166.99 285.86 169.9 288.59 Q 172.81 291.32 172.81 296.54 Q 172.81 301.76 169.9 304.49 Q 166.99 307.22 161.65 307.22 Q 156.31 307.22 153.42 304.51 Q 150.52 301.79 150.52 296.54 Q 150.52 291.29 153.42 288.58 Q 156.31 285.86 161.65 285.86 Z M 161.65 290.81 Q 159.52 290.81 158.41 292.1 Q 157.3 293.39 157.3 295.58 L 157.3 297.5 Q 157.3 299.69 158.41 300.98 Q 159.52 302.27 161.65 302.27 Q 163.78 302.27 164.91 300.98 Q 166.03 299.69 166.03 297.5 L 166.03 295.58 Q 166.03 293.39 164.91 292.1 Q 163.78 290.81 161.65 290.81 Z" transform="matrix(-0.866024, 0.500002, -0.500002, -0.866024, 626.559336, 432.743567)" style="text-wrap-mode: nowrap;"/><path d="M 170.98 292.55 Q 170.98 294.44 169.96 295.97 Q 168.94 297.5 166.99 298.22 L 171.58 306.86 L 164.14 306.86 L 160.48 299.33 L 158.02 299.33 L 158.02 306.86 L 151.39 306.86 L 151.39 286.22 L 164.02 286.22 Q 166.24 286.22 167.82 287.08 Q 169.39 287.93 170.19 289.39 Q 170.98 290.84 170.98 292.55 Z M 164.23 292.82 Q 164.23 292.01 163.69 291.47 Q 163.15 290.93 162.37 290.93 L 158.02 290.93 L 158.02 294.74 L 162.37 294.74 Q 163.15 294.74 163.69 294.19 Q 164.23 293.63 164.23 292.82 Z" transform="matrix(-1, 0.000001, -0.000001, -1, 465.446052, 560.510384)" style="text-wrap-mode: nowrap;"/><rect x="212.313" y="263.757" width="3.687" height="4.44" style="" transform="matrix(-0.951057, -0.309017, 0.309017, -0.951057, 335.777872, 584.69756)"/><rect x="1024.182" y="365.331" width="17.786" height="6.15" style="" transform="matrix(-0.069757, -0.997564, 0.997564, -0.069757, -75.329233, 1335.982358)"/><rect x="212.313" y="263.757" width="3.687" height="4.44" style="" transform="matrix(0.669131, 0.743145, -0.743145, 0.669131, 263.105943, -136.61169)"/><rect x="212.313" y="263.757" width="3.687" height="4.44" style="" transform="matrix(0.34202, 0.939693, -0.939693, 0.34202, 509.412235, -88.937554)"/><rect x="212.313" y="263.757" width="3.687" height="4.44" style="" transform="matrix(0.882947, 0.469472, -0.469472, 0.882947, 281.141865, -117.039736)"/><rect x="1185.691" y="365.331" width="20.591" height="6.15" style="" transform="matrix(0.987688, 0.156434, -0.156434, 0.987688, -935.260054, -250.450489)"/></svg>